<svg xmlns="http://www.w3.org/2000/svg" xmlns:xlink="http://www.w3.org/1999/xlink" width="4500" zoomAndPan="magnify" viewBox="0 0 3374.88 1349.999938" height="1800" preserveAspectRatio="xMidYMid meet" version="1.0"><defs><clipPath id="66e469e1e4"><path d="M 25 283 L 3325 283 L 3325 1092 L 25 1092 Z M 25 283 " clip-rule="nonzero"/></clipPath><clipPath id="50d44868dd"><path d="M 2109.445312 283.144531 L 2109.445312 453.46875 L 1979.101562 453.46875 L 1903.351562 756.914062 L 1897.621094 756.914062 L 1815.339844 453.46875 L 1640.980469 453.46875 L 1812.074219 909.910156 C 1804.472656 951.984375 1780.296875 973.027344 1739.554688 973.027344 L 1674.371094 973.027344 L 1674.371094 1075.882812 C 1701.542969 1086.253906 1732.78125 1091.441406 1768.082031 1091.441406 C 1826.199219 1091.441406 1871.421875 1074.871094 1903.734375 1041.746094 C 1936.066406 1008.613281 1963.367188 960.058594 1985.632812 896.085938 L 2109.445312 538.289062 L 2109.445312 909.910156 L 2241.449219 909.910156 L 2255.3125 845.0625 C 2286.808594 895.199219 2332.433594 920.269531 2392.179688 920.269531 C 2450.292969 920.269531 2495.109375 900.105469 2526.617188 859.773438 C 2544.625 836.710938 2557.488281 807.335938 2565.203125 771.644531 C 2575.699219 807.277344 2593.242188 836.652344 2617.835938 859.773438 C 2660.757812 900.105469 2719.976562 920.269531 2795.496094 920.269531 C 2870.984375 920.269531 2930.324219 899.957031 2973.503906 859.332031 C 3016.679688 818.703125 3038.273438 759.488281 3038.273438 681.671875 C 3038.273438 638.890625 3031.738281 601.726562 3018.675781 570.1875 L 3070.84375 570.1875 L 3070.84375 798.390625 C 3070.84375 842.777344 3083.742188 874.1875 3109.550781 892.621094 C 3135.351562 911.050781 3172.164062 920.269531 3219.976562 920.269531 C 3235.167969 920.269531 3253.089844 918.832031 3273.730469 915.957031 C 3294.371094 913.082031 3311.203125 909.339844 3324.25 904.710938 L 3324.25 803.589844 L 3278.628906 803.589844 C 3261.230469 803.589844 3249.277344 798.832031 3242.769531 789.320312 C 3236.253906 779.808594 3233.007812 764.683594 3233.007812 743.9375 L 3233.007812 570.1875 L 3324.25 570.1875 L 3324.25 453.46875 L 3233.007812 453.46875 L 3233.007812 315.148438 L 3112.398438 315.148438 L 3077.375 453.46875 L 3010.558594 453.46875 L 3010.558594 552.871094 C 3000.789062 534.375 2988.4375 518.101562 2973.503906 504.050781 C 2930.324219 463.421875 2870.984375 443.109375 2795.496094 443.109375 C 2719.976562 443.109375 2660.757812 463.273438 2617.835938 503.605469 C 2593.34375 526.632812 2575.84375 555.855469 2565.335938 591.28125 C 2557.636719 555.582031 2544.726562 526.222656 2526.617188 503.203125 C 2495.109375 463.148438 2450.296875 443.109375 2392.179688 443.109375 C 2342.746094 443.109375 2302.550781 460.683594 2271.609375 495.828125 L 2271.609375 283.144531 Z M 318.679688 443.109375 C 288.796875 443.109375 260.410156 450.179688 233.515625 464.308594 C 206.625 478.417969 185.027344 497.5625 168.75 521.746094 L 158.152344 453.46875 L 25.351562 453.46875 L 25.351562 909.910156 L 187.476562 909.910156 L 187.476562 641.929688 C 187.476562 621.753906 193.453125 604.757812 205.40625 590.941406 C 217.359375 577.109375 232.839844 570.1875 251.863281 570.1875 C 268.140625 570.1875 280.773438 576.105469 289.738281 587.917969 C 298.703125 599.71875 303.183594 615.414062 303.183594 634.996094 L 303.183594 909.910156 L 465.3125 909.910156 L 465.3125 641.929688 C 465.3125 621.753906 471.289062 604.757812 483.242188 590.941406 C 495.195312 577.109375 510.675781 570.1875 529.699219 570.1875 C 545.976562 570.1875 558.605469 576.105469 567.570312 587.917969 C 576.535156 599.71875 581.019531 615.414062 581.019531 634.996094 L 581.019531 909.910156 L 743.183594 909.910156 L 743.183594 840.105469 C 759.851562 893.550781 808.175781 920.269531 888.164062 920.269531 C 922.375 920.269531 952.246094 915.078125 977.777344 904.710938 C 1003.300781 894.34375 1026.398438 880.519531 1047.0625 863.238281 C 1054.65625 881.109375 1068.640625 895.082031 1089.003906 905.15625 C 1109.382812 915.226562 1135.328125 920.269531 1166.835938 920.269531 C 1183.113281 920.269531 1197.5 918.960938 1209.992188 916.363281 C 1220.417969 914.210938 1228.847656 912.0625 1235.300781 909.910156 L 1387.59375 909.910156 L 1387.59375 641.929688 C 1387.59375 621.753906 1393.832031 604.757812 1406.324219 590.941406 C 1418.832031 577.109375 1435.136719 570.1875 1455.246094 570.1875 C 1472.621094 570.1875 1486.050781 576.105469 1495.550781 587.917969 C 1505.074219 599.71875 1509.835938 615.414062 1509.835938 634.996094 L 1509.835938 909.910156 L 1671.960938 909.910156 L 1671.960938 614.242188 C 1671.960938 558.925781 1659.460938 516.574219 1634.472656 487.199219 C 1609.496094 457.808594 1572.011719 443.109375 1522.03125 443.109375 C 1491.609375 443.109375 1462.691406 450.316406 1435.265625 464.710938 C 1407.835938 479.117188 1385.703125 498.425781 1368.867188 522.628906 L 1358.269531 453.46875 L 1225.464844 453.46875 L 1225.464844 803.589844 L 1222.222656 803.589844 C 1213.535156 803.589844 1207.011719 800.417969 1202.660156 794.078125 C 1198.324219 787.738281 1196.160156 779.660156 1196.160156 769.855469 L 1196.160156 591.792969 C 1196.160156 539.351562 1175.503906 501.457031 1134.207031 478.128906 C 1092.929688 454.785156 1039.425781 443.109375 973.710938 443.109375 C 901.457031 443.109375 845.914062 455.792969 807.066406 481.15625 C 768.238281 506.5 748.832031 540.789062 748.832031 584.011719 C 748.832031 589.203125 749.109375 593.230469 749.664062 596.105469 L 909.363281 596.105469 L 909.363281 592.640625 C 909.363281 578.804688 915.457031 568.730469 927.671875 562.40625 C 939.902344 556.066406 954.4375 552.898438 971.28125 552.898438 C 989.742188 552.898438 1004.8125 557.503906 1016.484375 566.722656 C 1028.160156 575.9375 1033.996094 589.484375 1033.996094 607.347656 L 1033.996094 629.835938 C 965.5625 629.835938 910.167969 634.167969 867.804688 642.8125 C 825.429688 651.4375 792.96875 667.429688 770.410156 690.777344 C 757.8125 703.8125 748.738281 720.132812 743.183594 739.738281 L 743.183594 614.242188 C 743.183594 559.515625 730.949219 517.3125 706.488281 487.644531 C 682.046875 457.957031 645.386719 443.109375 596.515625 443.109375 C 567.71875 443.109375 540.140625 450.179688 513.785156 464.308594 C 487.445312 478.417969 465.851562 497.5625 449.015625 521.746094 C 426.753906 469.320312 383.308594 443.109375 318.679688 443.109375 Z M 2795.496094 559.789062 C 2849.257812 559.789062 2876.144531 592.363281 2876.144531 657.488281 L 2876.144531 706.738281 C 2876.144531 771.3125 2849.257812 803.589844 2795.496094 803.589844 C 2742.265625 803.589844 2715.648438 771.3125 2715.648438 706.738281 L 2715.648438 657.488281 C 2715.648438 592.363281 2742.265625 559.789062 2795.496094 559.789062 Z M 2341.65625 570.1875 C 2388.375 570.1875 2411.742188 599.867188 2411.742188 659.222656 L 2411.742188 705.042969 C 2411.742188 763.808594 2388.375 793.191406 2341.65625 793.191406 C 2317.769531 793.191406 2299.859375 784.269531 2287.90625 766.429688 C 2275.953125 748.566406 2269.976562 725.210938 2269.976562 696.382812 L 2269.976562 667.847656 C 2269.976562 639.046875 2275.953125 615.570312 2287.90625 597.433594 C 2299.859375 579.277344 2317.769531 570.1875 2341.65625 570.1875 Z M 1033.996094 711.089844 L 1033.996094 749.984375 C 1033.996094 767.855469 1025.980469 782.851562 1009.953125 794.960938 C 993.945312 807.054688 975.347656 813.097656 954.152344 813.097656 C 917.222656 813.097656 898.765625 798.683594 898.765625 769.855469 C 898.765625 751.992188 909.75 737.734375 931.738281 727.089844 C 953.742188 716.425781 987.828125 711.089844 1033.996094 711.089844 Z M 1033.996094 711.089844 " clip-rule="nonzero"/></clipPath></defs><g clip-path="url(#66e469e1e4)"><g clip-path="url(#50d44868dd)"><path fill="#cccccc" d="M 25.351562 283.144531 L 25.351562 1091.441406 L 3324.25 1091.441406 L 3324.25 283.144531 Z M 25.351562 283.144531 " fill-opacity="1" fill-rule="nonzero"/></g></g></svg>
