<svg xmlns="http://www.w3.org/2000/svg" xmlns:xlink="http://www.w3.org/1999/xlink" width="800" zoomAndPan="magnify" viewBox="0 0 600 599.999999" height="800" preserveAspectRatio="xMidYMid meet" version="1.0"><path fill="#f8f8f8" d="M 294.960938 282.910156 C 316.925781 250.992188 309.125 266.425781 288.542969 275.414062 C 173.945312 325.847656 35.832031 280.808594 3.566406 269.953125 C 84.566406 227.582031 103.035156 171.0625 133.761719 161.972656 C 133.761719 161.972656 99.335938 184.871094 36.183594 142.667969 L 29.328125 138.085938 L 82.808594 109.503906 C 102.003906 99.246094 182.824219 43.96875 247.898438 36.390625 C 358.984375 42.964844 258.648438 43.996094 193.804688 20.558594 C 193.804688 20.558594 247.0625 2.832031 318.734375 7.0625 C 385.144531 10.980469 421.078125 31.742188 451.21875 46.007812 C 406.960938 107.171875 396.574219 162.625 405.527344 231.386719 C 363.820312 269.363281 291.011719 308.828125 281.347656 309.328125 C 274.300781 309.691406 279.558594 305.289062 294.960938 282.910156 Z M 294.960938 282.910156 " fill-opacity="1" fill-rule="nonzero"/><path fill="#f8f8f8" d="M 355.507812 581.1875 C 345.421875 584.839844 333.425781 590.828125 333.425781 590.828125 C 333.425781 590.828125 345.632812 558.902344 370.058594 530.585938 C 397.390625 498.902344 449.359375 477.300781 493.171875 426.347656 C 499.59375 418.878906 500.183594 418.554688 494.269531 416.609375 C 478.21875 411.324219 448.464844 393.507812 448.464844 390.160156 C 448.464844 389.839844 453.351562 387 457.855469 384.113281 C 504.34375 354.300781 546.972656 302.609375 569.875 258.296875 L 577.683594 243.191406 C 577.683594 243.191406 613.984375 321.449219 584.003906 419.554688 C 565.515625 480.042969 543.457031 510.21875 495.585938 531.039062 C 470.167969 542.09375 376.367188 573.632812 355.507812 581.1875 Z M 355.507812 581.1875 " fill-opacity="1" fill-rule="nonzero"/><path fill="#f8f8f8" d="M 139.730469 464.375 C 123.132812 440.488281 124.328125 434.984375 141.902344 426.171875 C 158.453125 417.871094 165.511719 413.789062 165.511719 413.789062 C 165.511719 413.789062 161.300781 407.707031 160.125 404.746094 C 143.582031 363.15625 158.917969 313.402344 158.917969 313.402344 C 202.136719 315.648438 226.472656 313.230469 273.480469 292.1875 C 230.140625 317.957031 220.664062 371.691406 237.960938 407.039062 L 238.648438 408.128906 L 241.15625 406.65625 C 275.792969 386.328125 317.414062 387.644531 350.972656 408.046875 L 357.871094 412.242188 L 358.792969 411.335938 C 366.34375 403.886719 396.789062 336.445312 347.351562 296.652344 L 393.253906 261.628906 C 406.210938 251.746094 420.820312 238.648438 420.820312 238.648438 C 420.820312 238.648438 415.917969 207.683594 417.816406 178.082031 C 420.789062 131.859375 434.910156 76.28125 495.980469 18.058594 C 500.65625 13.601562 537.753906 40.5 556.597656 73.71875 C 578.667969 112.636719 581.796875 167.550781 573.007812 218.238281 C 572.386719 221.820312 559.777344 248.898438 559.777344 248.898438 L 554.773438 257.714844 C 529.832031 301.671875 484.496094 352.542969 437.085938 381.992188 C 433.167969 384.421875 429.304688 387.355469 429.304688 387.355469 C 442.734375 407.8125 460.316406 414.375 481.347656 423.453125 C 432.917969 467.015625 410.679688 476.773438 378.121094 503.347656 C 373.191406 507.371094 352.480469 529.988281 352.480469 529.988281 C 352.480469 529.988281 344.683594 532.535156 340.0625 533.285156 C 253.96875 547.226562 182.710938 526.238281 139.730469 464.375 Z M 139.730469 464.375 " fill-opacity="1" fill-rule="nonzero"/></svg>